<?xml version="1.0" encoding="UTF-8"?>
<svg id="Layer_2" data-name="Layer 2" xmlns="http://www.w3.org/2000/svg" xmlns:xlink="http://www.w3.org/1999/xlink" viewBox="0 0 444.77 472.34">
  <defs>
    <style>
      .cls-1 {
        fill: url(#linear-gradient-2);
      }

      .cls-2 {
        stroke: url(#linear-gradient-3);
      }

      .cls-2, .cls-3 {
        fill: none;
        stroke-miterlimit: 10;
        stroke-width: 5px;
      }

      .cls-4 {
        font-family: BowlbyOneSC-Regular, 'Bowlby One SC';
        font-size: 175px;
        letter-spacing: .03em;
      }

      .cls-3 {
        stroke: url(#linear-gradient);
      }
    </style>
    <linearGradient id="linear-gradient" x1="222.39" y1="472.34" x2="222.39" y2="27.57" gradientTransform="translate(241.88 -84.04) rotate(45)" gradientUnits="userSpaceOnUse">
      <stop offset="0" stop-color="#5e79ea"/>
      <stop offset="1" stop-color="#17ead9"/>
    </linearGradient>
    <linearGradient id="linear-gradient-2" x1="215.67" y1="300.28" x2="215.67" y2="166.47" gradientUnits="userSpaceOnUse">
      <stop offset="0" stop-color="#777"/>
      <stop offset=".29" stop-color="#8a8a8a"/>
      <stop offset=".65" stop-color="#c6c6c6"/>
      <stop offset="1" stop-color="#e0e0e0"/>
    </linearGradient>
    <linearGradient id="linear-gradient-3" y1="444.77" y2="0" gradientTransform="translate(222.39 -92.11) rotate(45)" xlink:href="#linear-gradient"/>
  </defs>
  <g id="Layer_1-2" data-name="Layer 1">
    <rect class="cls-3" x="67.64" y="95.21" width="309.5" height="309.5" transform="translate(-111.61 230.46) rotate(-45)"/>
    <g>
      <text class="cls-4" transform="translate(98.38 295.49)"><tspan x="0" y="0">JT</tspan></text>
      <g>
        <path class="cls-1" d="M151.7,300.28c-6.32,0-12.09-.41-17.3-1.24-5.21-.83-10.23-2.28-15.04-4.36-4.81-2.08-8.87-4.77-12.18-8.08-3.3-3.3-5.94-7.61-7.9-12.9-1.97-5.3-2.95-11.42-2.95-18.37,0-3.08.91-4.61,2.73-4.61h38.96c1.76,0,3.08.43,3.93,1.28.85.86,1.37,1.91,1.54,3.16.17,1.25.33,2.51.47,3.76.14,1.25.57,2.31,1.28,3.16.71.85,1.84,1.28,3.38,1.28,1.42,0,2.58-.38,3.46-1.15.88-.77,1.51-1.92,1.88-3.46.37-1.54.6-2.88.68-4.02.08-1.14.13-2.59.13-4.36v-.68c-.06-4.1-.21-12.02-.47-23.75-.26-11.73-.38-20.91-.38-27.51v-29.05c0-1.65,1.2-2.62,3.59-2.91,1.82,0,4.56.03,8.2.09,3.64.06,6.38.09,8.2.09,2.73,0,6.78-.03,12.13-.09,5.35-.06,9.4-.09,12.13-.09h8.03c1.31,0,2.22.8,2.73,2.39-.12,1.03-.16,2.42-.13,4.19.03,1.77.01,3.16-.04,4.19v4.27c-.57,17.49-.85,33.1-.85,46.83v26.83c0,5.01-.68,9.66-2.05,13.93-1.37,4.27-3.19,7.92-5.47,10.94-2.28,3.02-5,5.74-8.16,8.16-3.16,2.42-6.42,4.37-9.78,5.85-3.36,1.48-6.91,2.71-10.64,3.67-3.73.97-7.24,1.64-10.51,2.01-3.28.37-6.48.56-9.61.56Z"/>
        <path class="cls-1" d="M219.83,193.13c0-1.03.06-2.55.17-4.57.12-2.02.17-3.4.17-4.14,0-.28-.06-1.31-.17-3.08-.11-1.77-.17-3.3-.17-4.61,0-6.04.57-9.06,1.71-9.06.46,0,.85.06,1.2.17,11.91,0,29.55-.14,52.94-.43,23.38-.28,40.89-.43,52.51-.43,2.91,0,4.74.26,5.51.77.77.51,1.15,1.51,1.15,2.99v2.39c0,2.96.03,7.34.08,13.12.06,5.78.09,10.18.09,13.2s-.8,4.44-2.39,4.44c-3.19,0-7.95-.06-14.27-.17-6.32-.11-11.08-.17-14.27-.17v91.6c-.4,1.71-1.37,2.62-2.91,2.73-2,0-4.9-.03-8.72-.09-3.82-.06-6.72-.08-8.72-.08-.12,0-.23.06-.34.17-2.51,0-6.02-.03-10.55-.09-4.53-.06-7.9-.08-10.13-.08h-5.13c-1.14.11-2.79.17-4.96.17l-3.42-4.1c0-8.66.28-21.53.85-38.62.57-17.09.85-29.96.85-38.62,0-.4-.01-1.05-.04-1.97-.03-.91-.04-1.65-.04-2.22s-.04-1.28-.13-2.14c-.08-.85-.23-1.55-.43-2.09-.2-.54-.44-1.08-.73-1.62-.29-.54-.67-.94-1.15-1.2-.49-.26-1.07-.38-1.75-.38h-24.44c-1.59-.46-2.39-4.39-2.39-11.79Z"/>
      </g>
    </g>
    <rect class="cls-2" x="67.64" y="67.64" width="309.5" height="309.5" transform="translate(-92.11 222.39) rotate(-45)"/>
  </g>
</svg>